<?xml version="1.0" encoding="utf-8"?>
<!-- Generator: Adobe Illustrator 22.1.0, SVG Export Plug-In . SVG Version: 6.00 Build 0)  -->
<svg version="1.1" xmlns="http://www.w3.org/2000/svg" xmlns:xlink="http://www.w3.org/1999/xlink" x="0px" y="0px"
	 viewBox="0 0 45 45" style="enable-background:new 0 0 45 45;" xml:space="preserve">
<style type="text/css">
	.st0{display:none;}
	.st1{display:inline;}
	.st2{fill:#FF6600;}
	.st3{fill:#873FBE;}
	.st4{fill:#FF3366;}
	.st5{fill:#28BB71;}
	.st6{fill:#2B90E5;}
</style>
<g id="Layer_1" class="st0">
	<g class="st1">
		<path class="st2" d="M5.2,3c-1,0-1.9,0.8-1.9,1.9c0,1,0.8,1.9,1.9,1.9s1.9-0.8,1.9-1.9C7.1,3.8,6.3,3,5.2,3z M5.2,5.5
			c-0.3,0-0.6-0.3-0.6-0.6c0-0.3,0.3-0.6,0.6-0.6c0.3,0,0.6,0.3,0.6,0.6C5.9,5.2,5.6,5.5,5.2,5.5z"/>
		<path class="st2" d="M10.1,3C9,3,8.2,3.8,8.2,4.9c0,1,0.8,1.9,1.9,1.9S12,5.9,12,4.9C12,3.8,11.1,3,10.1,3z M10.1,5.5
			c-0.3,0-0.6-0.3-0.6-0.6c0-0.3,0.3-0.6,0.6-0.6c0.3,0,0.6,0.3,0.6,0.6C10.7,5.2,10.4,5.5,10.1,5.5z"/>
		<path class="st2" d="M14.9,3c-1,0-1.9,0.8-1.9,1.9c0,1,0.8,1.9,1.9,1.9s1.9-0.8,1.9-1.9C16.8,3.8,15.9,3,14.9,3z M14.9,5.5
			c-0.3,0-0.6-0.3-0.6-0.6c0-0.3,0.3-0.6,0.6-0.6c0.3,0,0.6,0.3,0.6,0.6C15.5,5.2,15.2,5.5,14.9,5.5z"/>
		<path class="st2" d="M43.8,13.2c0.4,0,0.6-0.3,0.6-0.6l0-9.2c0-1.6-1.3-2.8-2.8-2.8H3.3c-1.6,0-2.8,1.3-2.8,2.8v31.2
			c0,1.4,1,2.6,2.4,2.8c0.1,0,0.3,0,0.4,0h12.5v2.3h-1.9c-1.3,0-2.4,1.1-2.4,2.4v1.4c0,0.6,0.5,1.1,1.1,1.1h3.1
			c0.4,0,0.6-0.3,0.6-0.6c0-0.4-0.3-0.6-0.6-0.6h-2.9V42c0-0.6,0.5-1.1,1.1-1.1H31c0.6,0,1.1,0.5,1.1,1.1v1.2H19.7
			c-0.4,0-0.6,0.3-0.6,0.6c0,0.4,0.3,0.6,0.6,0.6h12.6c0.6,0,1.1-0.5,1.1-1.1V42c0-1.3-1.1-2.4-2.4-2.4h-1.9v-2.3h12.5
			c0.1,0,0.3,0,0.4,0c1.4-0.2,2.4-1.4,2.4-2.8V16.6c0-0.4-0.3-0.6-0.6-0.6c-0.4,0-0.6,0.3-0.6,0.6v14.2H23V9.3h20.1v3.3
			C43.2,12.9,43.5,13.2,43.8,13.2z M1.8,9.3h19.9v21.5H1.8V9.3z M27.8,39.7H17.2v-2.3h10.6V39.7z M43.2,32.1v2.4
			c0,0.8-0.6,1.5-1.4,1.5c-0.1,0-0.1,0-0.2,0H3.3c-0.1,0-0.1,0-0.2,0c-0.8-0.1-1.4-0.7-1.4-1.5v-2.4H43.2z M22.4,8H1.8V3.4
			c0-0.9,0.7-1.5,1.5-1.5h38.2c0.9,0,1.5,0.7,1.5,1.5V8H22.4z"/>
		<path class="st2" d="M4.5,11.8h3.3c0.4,0,0.6-0.3,0.6-0.6c0-0.4-0.3-0.6-0.6-0.6H4.5c-0.4,0-0.6,0.3-0.6,0.6
			C3.9,11.6,4.2,11.8,4.5,11.8z"/>
		<path class="st2" d="M10,11.8h1.5c0.4,0,0.6-0.3,0.6-0.6c0-0.4-0.3-0.6-0.6-0.6H10c-0.4,0-0.6,0.3-0.6,0.6
			C9.4,11.6,9.7,11.8,10,11.8z"/>
		<path class="st2" d="M9.4,12.8H7.3c-0.4,0-0.6,0.3-0.6,0.6c0,0.4,0.3,0.6,0.6,0.6h2.1c0.4,0,0.6-0.3,0.6-0.6
			C10.1,13.1,9.8,12.8,9.4,12.8z"/>
		<path class="st2" d="M19.6,15.2h-2.1c-0.4,0-0.6,0.3-0.6,0.6s0.3,0.6,0.6,0.6h2.1c0.4,0,0.6-0.3,0.6-0.6S19.9,15.2,19.6,15.2z"/>
		<path class="st2" d="M10.8,13.5c0,0.4,0.3,0.6,0.6,0.6h5.2c0.4,0,0.6-0.3,0.6-0.6c0-0.4-0.3-0.6-0.6-0.6h-5.2
			C11,12.8,10.8,13.1,10.8,13.5z"/>
		<path class="st2" d="M8.7,15.8c0,0.4,0.3,0.6,0.6,0.6h1.1c0.4,0,0.6-0.3,0.6-0.6s-0.3-0.6-0.6-0.6H9.3C9,15.2,8.7,15.5,8.7,15.8z"
			/>
		<path class="st2" d="M15.4,16.5c0.4,0,0.6-0.3,0.6-0.6s-0.3-0.6-0.6-0.6h-3.1c-0.4,0-0.6,0.3-0.6,0.6s0.3,0.6,0.6,0.6H15.4z"/>
		<path class="st2" d="M8.4,24.2c0-0.4-0.3-0.6-0.6-0.6H4.5c-0.4,0-0.6,0.3-0.6,0.6c0,0.4,0.3,0.6,0.6,0.6h3.3
			C8.1,24.8,8.4,24.5,8.4,24.2z"/>
		<path class="st2" d="M10,23.5c-0.4,0-0.6,0.3-0.6,0.6c0,0.4,0.3,0.6,0.6,0.6h1.5c0.4,0,0.6-0.3,0.6-0.6c0-0.4-0.3-0.6-0.6-0.6H10z
			"/>
		<path class="st2" d="M10.1,26.5c0-0.4-0.3-0.6-0.6-0.6H7.3c-0.4,0-0.6,0.3-0.6,0.6c0,0.4,0.3,0.6,0.6,0.6h2.1
			C9.8,27.1,10.1,26.8,10.1,26.5z"/>
		<path class="st2" d="M10.5,28.2H9.3c-0.4,0-0.6,0.3-0.6,0.6c0,0.4,0.3,0.6,0.6,0.6h1.1c0.4,0,0.6-0.3,0.6-0.6
			C11.1,28.5,10.8,28.2,10.5,28.2z"/>
		<path class="st2" d="M19.6,28.2h-2.1c-0.4,0-0.6,0.3-0.6,0.6c0,0.4,0.3,0.6,0.6,0.6h2.1c0.4,0,0.6-0.3,0.6-0.6
			C20.2,28.5,19.9,28.2,19.6,28.2z"/>
		<path class="st2" d="M17.2,26.5c0-0.4-0.3-0.6-0.6-0.6h-5.2c-0.4,0-0.6,0.3-0.6,0.6c0,0.4,0.3,0.6,0.6,0.6h5.2
			C16.9,27.1,17.2,26.8,17.2,26.5z"/>
		<path class="st2" d="M15.4,28.2h-3.1c-0.4,0-0.6,0.3-0.6,0.6c0,0.4,0.3,0.6,0.6,0.6h3.1c0.4,0,0.6-0.3,0.6-0.6
			C16.1,28.5,15.8,28.2,15.4,28.2z"/>
		<path class="st2" d="M4.5,19.4h1.8c0.4,0,0.6-0.3,0.6-0.6c0-0.4-0.3-0.6-0.6-0.6H4.5c-0.4,0-0.6,0.3-0.6,0.6
			C3.9,19.1,4.2,19.4,4.5,19.4z"/>
		<path class="st2" d="M15.4,18.8c0-0.4-0.3-0.6-0.6-0.6H8.1c-0.4,0-0.6,0.3-0.6,0.6c0,0.4,0.3,0.6,0.6,0.6h6.6
			C15.1,19.4,15.4,19.1,15.4,18.8z"/>
		<path class="st2" d="M14.2,21.1c0-0.4-0.3-0.6-0.6-0.6H7.3c-0.4,0-0.6,0.3-0.6,0.6c0,0.4,0.3,0.6,0.6,0.6h6.3
			C13.9,21.7,14.2,21.4,14.2,21.1z"/>
		<path class="st2" d="M15.3,21.7h1.2c0.4,0,0.6-0.3,0.6-0.6c0-0.4-0.3-0.6-0.6-0.6h-1.2c-0.4,0-0.6,0.3-0.6,0.6
			C14.7,21.4,15,21.7,15.3,21.7z"/>
		<path class="st2" d="M30,25.4h-4.1c-0.4,0-0.6,0.3-0.6,0.6c0,0.4,0.3,0.6,0.6,0.6H30c0.4,0,0.6-0.3,0.6-0.6
			C30.6,25.7,30.3,25.4,30,25.4z"/>
		<path class="st2" d="M40.5,25.4h-8.2c-0.4,0-0.6,0.3-0.6,0.6c0,0.4,0.3,0.6,0.6,0.6h8.2c0.4,0,0.6-0.3,0.6-0.6
			C41.1,25.7,40.8,25.4,40.5,25.4z"/>
		<path class="st2" d="M30,27.9h-4.1c-0.4,0-0.6,0.3-0.6,0.6c0,0.4,0.3,0.6,0.6,0.6H30c0.4,0,0.6-0.3,0.6-0.6
			C30.6,28.2,30.3,27.9,30,27.9z"/>
		<path class="st2" d="M40.5,27.9h-8.2c-0.4,0-0.6,0.3-0.6,0.6c0,0.4,0.3,0.6,0.6,0.6h8.2c0.4,0,0.6-0.3,0.6-0.6
			C41.1,28.2,40.8,27.9,40.5,27.9z"/>
		<path class="st2" d="M41.1,12.2c0-0.9-0.7-1.7-1.7-1.7H26.9c-0.9,0-1.7,0.7-1.7,1.7v8.7v0v1.5c0,0.9,0.7,1.7,1.7,1.7h12.6
			c0.9,0,1.7-0.7,1.7-1.7V12.2z M39.8,22.5c0,0.2-0.2,0.4-0.4,0.4H26.9c-0.2,0-0.4-0.2-0.4-0.4v-1.3l4.7-4.7l3.3,3.7
			c0.2,0.3,0.6,0.3,0.9,0.1c0.3-0.2,0.3-0.6,0.1-0.9L35.1,19l1.5-1.5l3.3,3.7V22.5z M39.8,19.3l-2.5-2.8c-0.2-0.2-0.5-0.3-0.7-0.3
			c-0.3,0-0.6,0.1-0.8,0.3L34.3,18L32,15.4c-0.2-0.2-0.5-0.3-0.7-0.3c-0.3,0-0.6,0.1-0.8,0.3l-4,4v-7.2c0-0.2,0.2-0.4,0.4-0.4h12.6
			c0.2,0,0.4,0.2,0.4,0.4V19.3z"/>
	</g>
</g>
<g id="Layer_2" class="st0">
	<g class="st1">
		<path class="st3" d="M15.6,13c0.5,0,0.9-0.4,0.9-0.9s-0.4-0.9-0.9-0.9s-0.9,0.4-0.9,0.9S15.2,13,15.6,13z"/>
		<path class="st3" d="M15.6,18.2c0.5,0,0.9-0.4,0.9-0.9s-0.4-0.9-0.9-0.9s-0.9,0.4-0.9,0.9S15.2,18.2,15.6,18.2z"/>
		<path class="st3" d="M13.9,44.5h20.6c3.3,0,6-2.7,6-6c0-0.5-0.4-0.9-0.9-0.9h-2.6V4.8c0-2.4-1.9-4.3-4.3-4.3c0,0-24.7,0-24.9,0
			C6,0.5,4.5,2,4.5,3.9v4.3c0,0.5,0.4,0.9,0.9,0.9h4.3V40C9.6,42.4,11.4,44.5,13.9,44.5z M34.5,42.8H17.3c0.5-0.7,0.9-1.6,0.9-2.6
			v-0.9h20.5C38.3,41.3,36.6,42.8,34.5,42.8z M35.4,4.8v32.8h-18c-0.5,0-0.9,0.4-0.9,0.9v1.7c0,1.4-1.2,2.6-2.6,2.6
			c-1.5,0-2.6-1.3-2.6-2.8V3.9c0-0.6-0.2-1.2-0.5-1.7h21.9C34.2,2.2,35.4,3.4,35.4,4.8z M6.2,7.4V3.9c0-0.9,0.8-1.7,1.7-1.7
			c0.9,0,1.7,0.8,1.7,1.7v3.4H6.2z"/>
		<path class="st3" d="M23.4,25.1c0,1.5,0.6,2.9,1.7,3.8v5.6c0,0.3,0.2,0.6,0.5,0.8c0.3,0.1,0.6,0.1,0.9,0l2.1-1.4l2.1,1.4
			c0.3,0.2,0.6,0.2,0.9,0c0.3-0.1,0.5-0.4,0.5-0.8v-5.6c1.1-1,1.7-2.4,1.7-3.8c0-2.8-2.3-5.2-5.2-5.2S23.4,22.2,23.4,25.1z M29,32.1
			c-0.3-0.2-0.7-0.2-1,0l-1.2,0.8v-3c0.5,0.2,1.1,0.3,1.7,0.3s1.2-0.1,1.7-0.3v3L29,32.1z M32,25.1c0,1.9-1.6,3.4-3.4,3.4
			c-1.9,0-3.4-1.5-3.4-3.4c0-1.9,1.5-3.4,3.4-3.4S32,23.2,32,25.1z"/>
		<path class="st3" d="M15.6,7.9h15.5C31.6,7.9,32,7.5,32,7s-0.4-0.9-0.9-0.9H15.6c-0.5,0-0.9,0.4-0.9,0.9S15.2,7.9,15.6,7.9z"/>
		<path class="st3" d="M19.1,13h12c0.5,0,0.9-0.4,0.9-0.9s-0.4-0.9-0.9-0.9h-12c-0.5,0-0.9,0.4-0.9,0.9S18.6,13,19.1,13z"/>
		<path class="st3" d="M19.1,18.2h12c0.5,0,0.9-0.4,0.9-0.9s-0.4-0.9-0.9-0.9h-12c-0.5,0-0.9,0.4-0.9,0.9S18.6,18.2,19.1,18.2z"/>
		<path class="st3" d="M15.6,28.5h5.2c0.5,0,0.9-0.4,0.9-0.9s-0.4-0.9-0.9-0.9h-5.2c-0.5,0-0.9,0.4-0.9,0.9S15.2,28.5,15.6,28.5z"/>
		<path class="st3" d="M15.6,23.4h5.2c0.5,0,0.9-0.4,0.9-0.9s-0.4-0.9-0.9-0.9h-5.2c-0.5,0-0.9,0.4-0.9,0.9S15.2,23.4,15.6,23.4z"/>
		<path class="st3" d="M15.6,33.7h5.2c0.5,0,0.9-0.4,0.9-0.9S21.3,32,20.8,32h-5.2c-0.5,0-0.9,0.4-0.9,0.9S15.2,33.7,15.6,33.7z"/>
	</g>
</g>
<g id="Layer_3" class="st0">
	<g class="st1">
		<g>
			<g>
				<path class="st4" d="M40.9,0.4H4.1c-2,0-3.7,1.6-3.7,3.7v36.8c0,2,1.6,3.7,3.7,3.7h36.8c2,0,3.7-1.6,3.7-3.7V4.1
					C44.6,2.1,42.9,0.4,40.9,0.4z M43.1,40.9c0,1.2-1,2.2-2.2,2.2H4.1c-1.2,0-2.2-1-2.2-2.2V7.8h41.2L43.1,40.9L43.1,40.9z
					 M43.1,6.3H1.9V4.1c0-1.2,1-2.2,2.2-2.2h36.8c1.2,0,2.2,1,2.2,2.2L43.1,6.3L43.1,6.3z"/>
				<path class="st4" d="M5.6,3.4H4.8c-0.4,0-0.7,0.3-0.7,0.7s0.3,0.7,0.7,0.7h0.7c0.4,0,0.7-0.3,0.7-0.7S6,3.4,5.6,3.4z"/>
				<path class="st4" d="M8.8,3.4c-0.2-0.1-0.4-0.1-0.6,0C8.2,3.5,8.1,3.5,8,3.6c-0.3,0.3-0.3,0.8,0,1c0.1,0.1,0.2,0.1,0.2,0.2
					c0.2,0.1,0.4,0.1,0.6,0C8.9,4.8,9,4.7,9,4.6c0.3-0.3,0.3-0.8,0-1C9,3.5,8.9,3.5,8.8,3.4z"/>
				<path class="st4" d="M11.8,3.4c-0.3-0.1-0.6-0.1-0.8,0.2c-0.1,0.1-0.1,0.2-0.2,0.2c-0.1,0.2-0.1,0.4,0,0.6
					c0,0.1,0.1,0.2,0.2,0.2c0.3,0.3,0.8,0.3,1,0c0.1-0.1,0.1-0.2,0.2-0.2c0-0.1,0.1-0.2,0.1-0.3C12.2,3.8,12,3.5,11.8,3.4z"/>
				<path class="st4" d="M40.1,3.4h-25c-0.4,0-0.7,0.3-0.7,0.7s0.3,0.7,0.7,0.7h25c0.4,0,0.7-0.3,0.7-0.7S40.6,3.4,40.1,3.4z"/>
				<path class="st4" d="M11.7,35.5c0,0,0.1,0.1,0.1,0.1c2.8,2.9,6.6,4.6,10.7,4.6s7.9-1.7,10.7-4.6c0,0,0.1,0,0.1-0.1
					c0,0,0-0.1,0.1-0.1c5.2-5.6,5.2-14.2,0-19.8l0,0c0,0,0-0.1-0.1-0.1c0,0-0.1-0.1-0.1-0.1c-2.8-2.9-6.6-4.6-10.7-4.6
					s-7.9,1.7-10.7,4.6c0,0-0.1,0.1-0.1,0.1c0,0,0,0.1-0.1,0.1c-5.2,5.6-5.2,14.2,0,19.8C11.7,35.4,11.7,35.4,11.7,35.5z M26.5,38.1
					c1.1-1.4,2-2.9,2.5-4.6v0c0.9,0.4,1.8,1,2.6,1.6C30.2,36.4,28.4,37.4,26.5,38.1z M32.6,33.9c-1-0.8-2.1-1.4-3.2-2
					c0.5-1.9,0.7-3.9,0.8-5.8h5.5C35.5,29,34.5,31.8,32.6,33.9z M35.7,24.7h-5.5c0-2-0.3-3.9-0.8-5.8c1.1-0.5,2.2-1.2,3.2-2
					C34.5,19.1,35.5,21.9,35.7,24.7z M31.6,15.9c-0.8,0.6-1.7,1.2-2.6,1.6c-0.5-1.7-1.4-3.3-2.5-4.6C28.4,13.4,30.2,14.5,31.6,15.9z
					 M23.2,12.3c1.8,0.5,3.4,2.6,4.4,5.7c-1.4,0.5-2.9,0.8-4.4,0.8V12.3z M23.2,20.3c1.6-0.1,3.3-0.4,4.8-0.9
					c0.4,1.7,0.6,3.5,0.7,5.3h-5.5V20.3z M23.2,26.2h5.5c0,1.8-0.3,3.5-0.7,5.3c-1.6-0.5-3.2-0.8-4.8-0.9V26.2z M23.2,32
					c1.5,0.1,3,0.3,4.4,0.8c-1,3.1-2.6,5.2-4.4,5.7V32z M13.4,35c0.8-0.6,1.7-1.2,2.6-1.6v0c0.5,1.7,1.4,3.3,2.5,4.6
					C16.6,37.4,14.8,36.4,13.4,35z M21.8,38.6c-1.8-0.5-3.4-2.6-4.4-5.7c1.4-0.5,2.9-0.8,4.4-0.8L21.8,38.6L21.8,38.6z M21.8,30.6
					c-1.6,0.1-3.3,0.4-4.8,0.9c-0.4-1.7-0.6-3.5-0.7-5.3h5.5V30.6z M21.8,24.7h-5.5c0-1.8,0.3-3.5,0.7-5.3c1.6,0.5,3.2,0.8,4.8,0.9
					V24.7z M21.8,12.3v6.5c-1.5-0.1-3-0.3-4.4-0.8C18.4,14.9,20,12.8,21.8,12.3z M18.5,12.8c-1.1,1.4-2,2.9-2.5,4.6v0
					c-0.9-0.4-1.8-1-2.6-1.6C14.8,14.5,16.6,13.4,18.5,12.8z M12.4,16.9c1,0.8,2.1,1.4,3.2,2c-0.5,1.9-0.7,3.9-0.8,5.8H9.3
					C9.5,21.9,10.5,19.1,12.4,16.9z M14.8,26.2c0,2,0.3,3.9,0.8,5.8c-1.1,0.5-2.2,1.2-3.2,2c-1.8-2.2-2.9-4.9-3.1-7.8L14.8,26.2
					L14.8,26.2z"/>
			</g>
		</g>
	</g>
</g>
<g id="Layer_4" class="st0">
	<g class="st1">
		<g>
			<g>
				<path class="st5" d="M17.5,3.4h-6.2c-0.5,0-0.9,0.4-0.9,0.9c0,0.5,0.4,0.9,0.9,0.9h6.2c0.5,0,0.9-0.4,0.9-0.9S18,3.4,17.5,3.4z"
					/>
			</g>
		</g>
		<g>
			<g>
				<path class="st5" d="M15.1,39.6c-0.2-0.2-0.4-0.3-0.6-0.3c-0.2,0-0.4,0.1-0.6,0.3c-0.2,0.2-0.3,0.4-0.3,0.6
					c0,0.2,0.1,0.4,0.3,0.6s0.4,0.3,0.6,0.3s0.4-0.1,0.6-0.3c0.2-0.2,0.3-0.4,0.3-0.6C15.3,40,15.2,39.8,15.1,39.6z"/>
			</g>
		</g>
		<g>
			<g>
				<path class="st5" d="M38.9,27.8l-3.1-5.4c1.3-1.2,1.6-3.2,0.7-4.7c-0.5-0.9-1.3-1.5-2.3-1.8c-0.7-0.2-1.4-0.2-2.1,0l-3.1-5.4
					c-0.1-0.2-0.4-0.4-0.7-0.4c-0.3,0-0.6,0.1-0.7,0.3l-9.8,12.5l-4.1,2.4c-2.3,1.4-3.1,4.4-1.8,6.7c0.7,1.1,1.7,1.9,3,2.3
					c0.4,0.1,0.9,0.2,1.3,0.2c0.9,0,1.7-0.2,2.4-0.7l0.5-0.3l1.7,3H2.3V7.8h24.3v0.3c0,0.5,0.4,0.9,0.9,0.9s0.9-0.4,0.9-0.9V4
					c0-1.8-1.5-3.4-3.4-3.4H4C2.1,0.6,0.6,2.1,0.6,4v37c0,1.8,1.5,3.4,3.4,3.4h21c1.8,0,3.4-1.5,3.4-3.4V30.5l9.9-1.4
					c0.3,0,0.5-0.2,0.6-0.5C39,28.3,39,28,38.9,27.8z M2.3,4c0-0.9,0.7-1.6,1.6-1.6h21c0.9,0,1.6,0.7,1.6,1.6v2.1H2.3V4z M33.7,17.4
					c0.6,0.1,1,0.5,1.3,1c0.4,0.8,0.4,1.7-0.1,2.3l-2-3.4C33.1,17.4,33.4,17.4,33.7,17.4z M17.6,32.2c-0.7,0.4-1.6,0.5-2.4,0.3
					c-0.8-0.2-1.5-0.8-1.9-1.5c-0.9-1.5-0.4-3.5,1.2-4.4l3.5-2l3.2,5.5L17.6,32.2z M20.4,32.5l1.5-0.9l2,3.5L22.4,36L20.4,32.5z
					 M26.6,41c0,0.9-0.7,1.6-1.6,1.6H4c-0.9,0-1.6-0.7-1.6-1.6v-3h24.3L26.6,41L26.6,41z M26.6,36.3h-1.3l0.3-0.1
					c0.4-0.2,0.5-0.8,0.3-1.2l-2.2-3.9l3-0.4V36.3z M22.7,29.5l-3.5-6l6.2-7.9l7.2,12.5L22.7,29.5z M34.5,27.9l-7.9-13.7l1.4-1.8
					l8.8,15.2L34.5,27.9z"/>
			</g>
		</g>
		<g>
			<g>
				<path class="st5" d="M44.3,13.1c-0.2-0.4-0.8-0.5-1.2-0.3l-4.2,2.4c-0.4,0.2-0.5,0.8-0.3,1.2c0.2,0.3,0.4,0.4,0.7,0.4
					c0.1,0,0.3,0,0.4-0.1l4.2-2.4C44.4,14,44.5,13.5,44.3,13.1z"/>
			</g>
		</g>
		<g>
			<g>
				<path class="st5" d="M36.5,9.4c-0.5-0.1-0.9,0.1-1,0.6l-0.6,2.3c-0.1,0.5,0.1,0.9,0.6,1c0.1,0,0.1,0,0.2,0
					c0.4,0,0.7-0.3,0.8-0.6l0.6-2.3C37.3,10,37,9.5,36.5,9.4z"/>
			</g>
		</g>
		<g>
			<g>
				<path class="st5" d="M43.1,20.5l-2.4-0.6c-0.5-0.1-0.9,0.1-1,0.6c-0.1,0.5,0.1,0.9,0.6,1l2.4,0.6c0.1,0,0.1,0,0.2,0
					c0.4,0,0.7-0.3,0.8-0.6C43.8,21.1,43.5,20.7,43.1,20.5z"/>
			</g>
		</g>
		<g>
			<g>
				<path class="st5" d="M16.8,10.3H5c-0.5,0-0.9,0.4-0.9,0.9S4.6,12,5,12h11.8c0.5,0,0.9-0.4,0.9-0.9S17.3,10.3,16.8,10.3z"/>
			</g>
		</g>
		<g>
			<g>
				<path class="st5" d="M17.4,14.6c-0.2-0.2-0.4-0.3-0.6-0.3c-0.2,0-0.4,0.1-0.6,0.3C16.1,14.8,16,15,16,15.3s0.1,0.4,0.3,0.6
					c0.2,0.2,0.4,0.3,0.6,0.3c0.2,0,0.4-0.1,0.6-0.3c0.2-0.2,0.3-0.4,0.3-0.6S17.6,14.8,17.4,14.6z"/>
			</g>
		</g>
		<g>
			<g>
				<path class="st5" d="M13.3,14.4H5c-0.5,0-0.9,0.4-0.9,0.9s0.4,0.9,0.9,0.9h8.3c0.5,0,0.9-0.4,0.9-0.9S13.8,14.4,13.3,14.4z"/>
			</g>
		</g>
		<g>
			<g>
				<path class="st5" d="M14.8,18.5H8.3c-0.5,0-0.9,0.4-0.9,0.9c0,0.5,0.4,0.9,0.9,0.9h6.5c0.5,0,0.9-0.4,0.9-0.9
					C15.7,18.9,15.3,18.5,14.8,18.5z"/>
			</g>
		</g>
		<g>
			<g>
				<path class="st5" d="M5.1,18.5L5.1,18.5c-0.5,0-0.9,0.4-0.9,0.9c0,0.5,0.4,0.9,0.9,0.9h0c0.5,0,0.9-0.4,0.9-0.9
					C5.9,18.9,5.5,18.5,5.1,18.5z"/>
			</g>
		</g>
	</g>
</g>
<g id="Layer_5">
	<g>
		<path class="st6" d="M28.6,12c1.2,0,2.1-1,2.1-2.1s-1-2.1-2.1-2.1s-2.1,1-2.1,2.1c0,0.5,0.2,0.9,0.4,1.3L23.3,16
			c-0.2-0.1-0.4-0.1-0.7-0.1c-0.6,0-1.1,0.2-1.5,0.6l-2.3-1.3c0-0.1,0-0.3,0-0.5c0-1.2-1-2.1-2.1-2.1s-2.1,1-2.1,2.1
			c0,0.2,0,0.3,0,0.5l-2.3,1.3c-0.4-0.4-0.9-0.6-1.5-0.6c-1.2,0-2.1,1-2.1,2.1s1,2.1,2.1,2.1s2.1-1,2.1-2.1c0-0.2,0-0.3,0-0.5
			l2.3-1.3c0.4,0.4,0.9,0.6,1.5,0.6s1.1-0.2,1.5-0.6l2.3,1.3c0,0.1,0,0.3,0,0.5c0,1.2,1,2.1,2.1,2.1c1.2,0,2.1-1,2.1-2.1
			c0-0.5-0.2-0.9-0.4-1.3l3.5-4.9C28.1,11.9,28.3,12,28.6,12z M28.6,9c0.5,0,0.9,0.4,0.9,0.9c0,0.5-0.4,0.9-0.9,0.9
			s-0.9-0.4-0.9-0.9C27.7,9.4,28.1,9,28.6,9z M10.9,18.9c-0.5,0-0.9-0.4-0.9-0.9s0.4-0.9,0.9-0.9s0.9,0.4,0.9,0.9
			S11.3,18.9,10.9,18.9z M16.8,15.6c-0.5,0-0.9-0.4-0.9-0.9c0-0.5,0.4-0.9,0.9-0.9c0.5,0,0.9,0.4,0.9,0.9
			C17.6,15.2,17.2,15.6,16.8,15.6z M22.7,18.9c-0.5,0-0.9-0.4-0.9-0.9s0.4-0.9,0.9-0.9c0.5,0,0.9,0.4,0.9,0.9S23.1,18.9,22.7,18.9z"
			/>
		<path class="st6" d="M36.5,32.9H32H7.5H2.4c-0.3,0-0.5-0.2-0.5-0.5V5.8c0-0.3,0.2-0.5,0.5-0.5h3c0.4,0,0.6-0.3,0.6-0.6
			S5.8,4,5.4,4h-3c-1,0-1.8,0.8-1.8,1.8v26.5c0,1,0.8,1.8,1.8,1.8h4.4v1.4c0,0.8,0.7,1.5,1.5,1.5h6.4l-3,5.9c-0.2,0.3,0,0.7,0.3,0.9
			c0.1,0,0.2,0.1,0.3,0.1c0.2,0,0.5-0.1,0.6-0.3l3.3-6.5h7.1l3.3,6.5c0.1,0.2,0.3,0.3,0.6,0.3c0.1,0,0.2,0,0.3-0.1
			c0.3-0.2,0.4-0.5,0.3-0.9l-3-5.9h6.4c0.8,0,1.5-0.7,1.5-1.5v-1.4h3.9c0.4,0,0.6-0.3,0.6-0.6C37.1,33.2,36.8,32.9,36.5,32.9z
			 M31.3,35.6c0,0.1-0.1,0.2-0.2,0.2H8.3c-0.1,0-0.2-0.1-0.2-0.2v-1.4h23.2V35.6z"/>
		<path class="st6" d="M8,5.3h8.8h5.8H37c0.3,0,0.5,0.2,0.5,0.5v6.1c0,0.4,0.3,0.6,0.6,0.6c0.4,0,0.6-0.3,0.6-0.6V5.8
			C38.8,4.8,38,4,37,4H23.3V2.7c0-0.9-0.7-1.6-1.6-1.6h-3.9c-0.9,0-1.6,0.7-1.6,1.6V4H8C7.6,4,7.3,4.3,7.3,4.6S7.6,5.3,8,5.3z
			 M17.4,2.7c0-0.2,0.1-0.3,0.3-0.3h3.9c0.2,0,0.3,0.1,0.3,0.3V4h-4.6L17.4,2.7L17.4,2.7z"/>
		<path class="st6" d="M9.6,23.5c-0.4,0-0.6,0.3-0.6,0.6v5.7c0,0.4,0.3,0.6,0.6,0.6h2.6c0.4,0,0.6-0.3,0.6-0.6v-5.7
			c0-0.4-0.3-0.6-0.6-0.6H9.6z M11.5,29.2h-1.3v-4.4h1.3V29.2z"/>
		<path class="st6" d="M15.5,20.2c-0.4,0-0.6,0.3-0.6,0.6v9c0,0.4,0.3,0.6,0.6,0.6h2.6c0.4,0,0.6-0.3,0.6-0.6v-9
			c0-0.4-0.3-0.6-0.6-0.6H15.5z M17.4,29.2h-1.3v-7.7h1.3V29.2z"/>
		<path class="st6" d="M21.3,23.5c-0.4,0-0.6,0.3-0.6,0.6v5.7c0,0.4,0.3,0.6,0.6,0.6H24c0.4,0,0.6-0.3,0.6-0.6v-5.7
			c0-0.4-0.3-0.6-0.6-0.6H21.3z M23.3,29.2H22v-4.4h1.3V29.2z"/>
		<path class="st6" d="M27.2,27.3c-0.4,0-0.6,0.3-0.6,0.6v1.9c0,0.4,0.3,0.6,0.6,0.6h2.6c0.4,0,0.6-0.3,0.6-0.6s-0.3-0.6-0.6-0.6h-2
			v-1.2C27.9,27.6,27.6,27.3,27.2,27.3z"/>
		<path class="st6" d="M44.1,33.5l-3.7-6.4c0.9-1,1.6-2.2,2-3.6c0.6-2.2,0.3-4.4-0.8-6.4c-2.3-4-7.5-5.4-11.5-3.1
			c-4,2.3-5.4,7.5-3.1,11.5c1.1,1.9,2.9,3.3,5.1,3.9c0.7,0.2,1.5,0.3,2.2,0.3c0.6,0,1.3-0.1,1.9-0.2l3.7,6.4
			c0.5,0.8,1.3,1.2,2.1,1.2c0.4,0,0.8-0.1,1.2-0.3c0.8-0.4,1.2-1.2,1.2-2.1C44.4,34.3,44.3,33.8,44.1,33.5z M32.4,28.2
			c-1.8-0.5-3.4-1.7-4.3-3.3c-2-3.4-0.8-7.8,2.6-9.7c1.1-0.6,2.3-1,3.5-1c2.5,0,4.9,1.3,6.2,3.6c1,1.6,1.2,3.6,0.7,5.4
			s-1.7,3.4-3.3,4.3C36.2,28.5,34.3,28.7,32.4,28.2z M42.6,35.7C42,36,41.3,35.8,41,35.3l-3.5-6.1c0.4-0.1,0.7-0.3,1-0.5
			c0.3-0.2,0.7-0.4,1-0.6l3.5,6.1c0.1,0.2,0.2,0.4,0.2,0.6C43.2,35.1,42.9,35.5,42.6,35.7z"/>
		<path class="st6" d="M40.1,23.2c0.5-1.5,0.3-3-0.3-4.4c-0.2-0.3-0.5-0.5-0.9-0.3c-0.3,0.2-0.5,0.5-0.3,0.9
			c0.5,1.1,0.6,2.3,0.2,3.5c-0.4,1.2-1.1,2.1-2.2,2.7c-1.1,0.6-2.4,0.8-3.7,0.5c-1.2-0.3-2.3-1.1-2.9-2.2c-1.3-2.3-0.5-5.3,1.8-6.6
			c1.7-1,3.8-0.8,5.3,0.3c0.3,0.2,0.7,0.2,0.9-0.1c0.2-0.3,0.2-0.7-0.1-0.9c-2-1.5-4.6-1.6-6.7-0.4c-1.4,0.8-2.4,2.1-2.8,3.7
			S28.2,23,29,24.4c0.8,1.4,2.1,2.4,3.7,2.8c0.5,0.1,1.1,0.2,1.6,0.2c1.1,0,2.1-0.3,3-0.8C38.7,25.9,39.7,24.6,40.1,23.2z"/>
	</g>
</g>
</svg>
